<?xml version="1.0" standalone="no"?>
<!DOCTYPE svg PUBLIC "-//W3C//DTD SVG 20010904//EN"
 "http://www.w3.org/TR/2001/REC-SVG-20010904/DTD/svg10.dtd">
<svg version="1.0" xmlns="http://www.w3.org/2000/svg"
 width="284.000000pt" height="351.000000pt" viewBox="0 0 284.000000 351.000000"
 preserveAspectRatio="xMidYMid meet">

<g transform="translate(0.000000,351.000000) scale(0.100000,-0.100000)"
fill="#000000" stroke="none">
<path d="M1109 3391 c-76 -48 -93 -86 -98 -218 l-3 -113 -185 0 c-112 0 -201
-5 -224 -12 -53 -15 -112 -68 -138 -123 -21 -45 -21 -50 -19 -634 l3 -588 30
-49 c19 -30 49 -60 79 -79 l49 -30 796 -3 c580 -2 807 0 838 9 55 15 115 67
142 124 21 44 21 54 21 625 0 571 0 581 -21 625 -26 55 -85 108 -138 123 -23
7 -112 12 -225 12 l-186 0 0 88 c0 143 -31 211 -114 251 -39 20 -61 21 -302
21 l-260 0 -45 -29z m562 -120 c22 -17 24 -29 27 -115 l4 -96 -279 2 -278 3
-3 70 c-4 83 2 109 28 135 19 19 34 20 249 20 210 0 231 -2 252 -19z m-107
-597 c9 -8 16 -21 16 -28 0 -11 -48 -148 -207 -589 -21 -59 -43 -102 -54 -108
-27 -14 -59 6 -59 35 0 44 231 684 252 697 20 13 35 11 52 -7z m-370 -80 c9
-8 16 -23 16 -31 0 -9 -53 -70 -117 -135 l-117 -118 112 -113 c84 -84 112
-119 112 -138 0 -28 -17 -49 -39 -49 -9 0 -78 62 -153 137 -104 104 -138 144
-138 163 0 19 34 59 137 162 76 76 145 138 155 138 9 0 24 -7 32 -16z m644
-127 c113 -114 140 -147 136 -164 -7 -27 -276 -293 -297 -293 -16 0 -47 36
-47 54 0 5 53 62 117 128 l117 118 -117 118 c-64 66 -117 126 -117 135 0 21
27 47 49 47 9 0 81 -64 159 -143z"/>
<path d="M155 2398 c-52 -30 -62 -102 -20 -143 52 -53 144 -14 145 62 0 61
-75 111 -125 81z"/>
<path d="M2620 2403 c-82 -31 -78 -148 5 -169 31 -8 82 12 95 37 18 32 12 84
-12 107 -25 23 -65 34 -88 25z"/>
<path d="M1920 1060 l0 -280 55 0 55 0 0 280 0 280 -55 0 -55 0 0 -280z"/>
<path d="M2114 1326 c-3 -8 -4 -29 -2 -48 l3 -33 92 -3 93 -3 2 -227 3 -227
53 -3 c37 -2 52 1 53 10 0 7 0 109 0 226 -1 182 1 213 14 218 8 4 52 7 98 8
l82 1 3 48 3 47 -246 0 c-202 0 -247 -3 -251 -14z"/>
<path d="M759 1194 c-49 -15 -91 -50 -117 -99 -24 -44 -23 -169 2 -219 50
-101 224 -136 315 -64 29 22 61 67 61 86 0 19 -85 16 -101 -5 -21 -25 -76 -44
-107 -37 -41 10 -82 53 -82 86 l0 28 150 0 150 0 0 40 c0 53 -35 125 -75 155
-17 14 -56 29 -85 35 -62 12 -53 12 -111 -6z m144 -105 c32 -40 20 -49 -70
-53 -45 -1 -88 1 -94 5 -16 10 14 56 44 69 36 16 100 4 120 -21z"/>
<path d="M290 1184 c-19 -8 -43 -23 -53 -32 -63 -57 -81 -187 -38 -275 67
-137 289 -140 354 -5 18 38 10 48 -41 48 -25 0 -42 -8 -62 -30 -32 -34 -73
-39 -119 -15 -38 19 -54 63 -49 132 4 48 10 61 37 85 42 37 80 37 124 -2 27
-23 44 -30 76 -30 33 0 41 3 41 19 0 29 -43 85 -80 103 -43 22 -141 23 -190 2z"/>
<path d="M1284 1190 c-12 -4 -31 -21 -43 -36 l-21 -27 0 32 0 32 -52 -3 -53
-3 0 -200 0 -200 52 -3 51 -3 4 130 c3 121 5 131 27 155 20 21 34 26 73 26
l48 0 0 55 0 55 -32 -1 c-18 0 -43 -4 -54 -9z"/>
<path d="M1526 1190 c-38 -12 -66 -38 -82 -77 -8 -18 -14 -35 -14 -38 0 -3 25
-5 55 -5 41 0 55 4 55 14 0 23 41 46 80 46 38 0 64 -14 73 -42 11 -32 -16 -48
-105 -63 -144 -23 -174 -51 -169 -155 4 -92 156 -127 253 -59 27 19 27 19 30
-3 3 -20 10 -23 51 -26 l47 -3 0 163 c0 176 -5 196 -53 232 -23 17 -45 21
-110 23 -45 1 -95 -2 -111 -7z m164 -251 c0 -45 -47 -89 -95 -89 -52 0 -75 15
-75 49 0 37 18 51 77 61 89 14 93 13 93 -21z"/>
<path d="M370 590 c-11 -11 -20 -26 -20 -34 0 -16 46 -56 64 -56 6 0 22 -7 34
-16 44 -31 -20 -61 -68 -32 -29 18 -39 -1 -11 -23 45 -36 131 -13 131 36 0 22
-35 53 -67 61 -38 9 -53 22 -46 41 5 12 16 14 49 9 47 -6 66 7 35 23 -31 17
-79 13 -101 -9z"/>
<path d="M619 581 c-23 -23 -29 -38 -29 -71 0 -90 99 -133 161 -71 62 62 20
171 -66 171 -27 0 -44 -8 -66 -29z m111 -21 c43 -43 14 -120 -45 -120 -24 0
-39 7 -49 22 -34 49 -5 118 49 118 14 0 34 -9 45 -20z"/>
<path d="M1094 595 c-13 -32 1 -143 20 -164 23 -25 82 -28 111 -7 27 20 37
176 11 176 -13 0 -16 -12 -16 -68 0 -75 -10 -92 -52 -92 -36 0 -48 24 -48 99
0 58 -14 88 -26 56z"/>
<path d="M1388 602 c-47 -4 -50 -20 -5 -24 l32 -3 3 -83 c2 -60 6 -82 15 -79
8 2 13 33 15 85 l3 82 29 0 c32 0 42 19 13 21 -46 4 -71 4 -105 1z"/>
<path d="M1793 598 c-24 -12 -45 -55 -45 -94 0 -87 102 -126 164 -64 28 28 30
36 25 78 -8 76 -75 113 -144 80z m97 -40 c58 -63 -28 -159 -92 -101 -23 20
-24 80 -1 105 22 25 68 23 93 -4z"/>
<path d="M2330 590 c-36 -36 -22 -66 42 -90 31 -11 43 -21 43 -35 0 -25 -38
-32 -71 -14 -27 14 -39 8 -31 -15 8 -19 73 -31 106 -20 22 8 26 15 26 49 0 37
-2 40 -42 55 -51 19 -68 34 -58 50 5 8 24 10 59 6 l51 -6 -24 20 c-30 26 -75
26 -101 0z"/>
<path d="M880 505 l0 -95 60 0 c47 0 60 3 60 15 0 11 -12 15 -45 15 l-45 0 0
80 c0 64 -3 80 -15 80 -12 0 -15 -17 -15 -95z"/>
<path d="M1610 505 c0 -78 3 -95 15 -95 12 0 15 17 15 95 0 78 -3 95 -15 95
-12 0 -15 -17 -15 -95z"/>
<path d="M2040 504 c0 -72 3 -95 13 -92 7 3 14 31 17 73 l5 68 48 -71 c66
-100 77 -96 77 23 0 79 -3 95 -15 95 -13 0 -15 -12 -13 -65 2 -36 1 -65 -2
-65 -3 0 -25 29 -49 65 -28 40 -51 65 -63 65 -16 0 -18 -10 -18 -96z"/>
<path d="M87 203 c-17 -17 -5 -45 23 -54 17 -6 30 -18 30 -26 0 -12 -8 -14
-37 -9 -35 6 -37 5 -19 -9 25 -19 50 -19 66 0 16 20 6 43 -25 55 -14 5 -25 17
-25 26 0 13 6 15 30 10 19 -3 29 -2 25 4 -7 11 -58 14 -68 3z"/>
<path d="M216 194 c-24 -23 -20 -70 6 -88 30 -21 54 -20 78 4 40 40 16 100
-40 100 -16 0 -36 -7 -44 -16z m74 -8 c28 -35 -11 -93 -47 -70 -36 22 -23 84
17 84 10 0 23 -7 30 -14z"/>
<path d="M371 148 c1 -45 3 -54 8 -33 4 20 14 31 31 36 l25 6 -25 4 c-35 6
-32 32 5 40 29 6 29 7 -7 8 l-38 1 1 -62z"/>
<path d="M488 203 c20 -4 22 -10 22 -59 0 -30 5 -54 10 -54 6 0 10 24 10 54 0
49 2 55 23 59 12 2 -3 4 -33 4 -30 0 -45 -2 -32 -4z"/>
<path d="M620 153 c9 -31 22 -59 28 -61 6 -2 16 15 22 37 13 51 24 52 36 4 13
-51 28 -51 43 -1 7 24 15 51 17 61 3 9 1 17 -5 17 -5 0 -13 -16 -17 -35 -9
-50 -21 -52 -34 -5 -13 49 -31 48 -44 -3 -12 -47 -22 -47 -33 0 -4 20 -14 38
-20 40 -7 3 -5 -16 7 -54z"/>
<path d="M812 150 c-12 -33 -17 -60 -12 -60 4 0 10 7 14 15 7 20 52 19 60 -1
4 -9 9 -14 12 -11 11 10 -26 117 -40 117 -8 0 -23 -25 -34 -60z m48 -2 c0 -5
-7 -8 -15 -8 -15 0 -20 21 -8 33 7 7 23 -11 23 -25z"/>
<path d="M940 151 c0 -34 4 -61 10 -61 6 0 10 11 10 25 0 32 15 32 36 0 9 -14
21 -25 26 -25 6 0 3 11 -5 24 -11 16 -12 27 -6 33 6 6 9 21 7 34 -2 20 -10 25
-40 27 l-38 3 0 -60z m67 33 c6 -16 -12 -34 -34 -34 -7 0 -13 11 -13 25 0 18
5 25 20 25 11 0 23 -7 27 -16z"/>
<path d="M1080 150 l0 -60 36 0 c21 0 33 4 29 10 -3 6 -17 10 -31 10 -34 0
-29 31 6 41 l25 7 -27 1 c-21 1 -28 6 -28 20 0 15 8 21 33 24 31 4 31 4 -5 5
l-38 2 0 -60z"/>
<path d="M1260 150 c0 -53 2 -60 19 -60 61 0 95 45 72 96 -9 20 -18 24 -51 24
l-40 0 0 -60z m68 38 c27 -27 7 -78 -30 -78 -15 0 -18 8 -18 45 0 37 3 45 18
45 10 0 23 -5 30 -12z"/>
<path d="M1410 150 l0 -60 36 0 c21 0 33 4 29 10 -3 6 -15 10 -26 10 -28 0
-25 37 4 43 l22 4 -22 2 c-35 2 -31 39 5 44 22 3 20 4 -10 6 l-38 1 0 -60z"/>
<path d="M1544 154 c13 -32 28 -60 33 -61 6 -2 20 22 31 53 25 64 25 64 12 64
-5 0 -10 -4 -10 -9 0 -5 -7 -26 -16 -47 l-16 -39 -18 45 c-9 24 -22 46 -28 48
-6 2 -1 -23 12 -54z"/>
<path d="M1680 150 l0 -60 36 0 c21 0 33 4 29 10 -3 6 -17 10 -31 10 -34 0
-29 32 6 41 l25 6 -25 4 c-35 6 -32 32 5 40 29 6 29 7 -7 8 l-38 1 0 -60z"/>
<path d="M1800 150 l0 -60 36 0 c21 0 33 4 29 10 -3 6 -15 10 -26 10 -16 0
-19 7 -19 50 0 28 -4 50 -10 50 -6 0 -10 -27 -10 -60z"/>
<path d="M1922 198 c-24 -31 -23 -57 2 -83 29 -29 43 -31 74 -9 25 17 31 71
10 92 -16 16 -73 15 -86 0z m72 -14 c19 -18 20 -28 6 -55 -20 -37 -80 -15 -80
30 0 14 29 41 45 41 7 0 21 -7 29 -16z"/>
<path d="M2070 150 c0 -33 4 -60 10 -60 6 0 10 11 10 25 0 20 5 25 25 25 29 0
47 27 34 52 -6 12 -21 18 -44 18 l-35 0 0 -60z m59 41 c19 -12 6 -41 -19 -41
-15 0 -20 7 -20 25 0 26 14 31 39 16z"/>
<path d="M2200 150 c0 -68 19 -84 21 -17 l1 42 15 -38 c9 -20 19 -37 23 -37 4
0 16 17 26 38 l19 37 3 -42 c5 -65 22 -51 22 17 0 73 -16 79 -47 18 l-21 -43
-18 43 c-25 63 -44 55 -44 -18z"/>
<path d="M2380 150 l0 -60 35 0 c19 0 35 5 35 10 0 6 -11 10 -25 10 -37 0 -35
37 3 43 l27 4 -27 2 c-21 1 -28 6 -28 20 0 14 8 21 28 24 22 3 20 4 -10 6
l-38 1 0 -60z"/>
<path d="M2500 150 c0 -33 4 -60 10 -60 6 0 10 21 10 47 l0 47 33 -47 c17 -26
35 -47 40 -47 4 0 7 27 7 60 0 33 -3 60 -8 60 -4 0 -7 -16 -6 -35 3 -49 -8
-50 -36 -4 -36 57 -50 51 -50 -21z"/>
<path d="M2658 203 c20 -4 22 -10 22 -59 0 -30 5 -54 10 -54 6 0 10 24 10 54
0 49 2 55 23 59 12 2 -3 4 -33 4 -30 0 -45 -2 -32 -4z"/>
</g>
</svg>
