<?xml version="1.0" standalone="no"?>
<!DOCTYPE svg PUBLIC "-//W3C//DTD SVG 20010904//EN"
 "http://www.w3.org/TR/2001/REC-SVG-20010904/DTD/svg10.dtd">
<svg version="1.0" xmlns="http://www.w3.org/2000/svg"
 width="1350.000000pt" height="1221.000000pt" viewBox="0 0 1350.000000 1221.000000"
 preserveAspectRatio="xMidYMid meet">
<metadata>
Created by potrace 1.10, written by Peter Selinger 2001-2011
</metadata>
<g transform="translate(0.000000,1221.000000) scale(0.100000,-0.100000)"
fill="#1c71d8" stroke="none">
<path d="M5110 11428 c-136 -32 -294 -89 -365 -131 -98 -59 -216 -154 -283
-226 -39 -42 -135 -169 -145 -191 -4 -8 -16 -28 -27 -45 -22 -34 -60 -114 -60
-125 0 -4 -7 -21 -15 -36 -8 -16 -15 -37 -15 -46 0 -9 -4 -19 -9 -23 -6 -3
-13 -27 -16 -53 -4 -26 -14 -72 -23 -102 -15 -50 -17 -181 -17 -1435 l0 -1380
23 -105 c27 -121 68 -248 88 -271 8 -8 14 -25 14 -36 0 -11 7 -26 15 -33 8 -7
15 -16 15 -21 0 -12 62 -113 72 -117 4 -2 8 -10 8 -17 0 -8 6 -18 13 -22 7 -4
23 -21 36 -38 78 -102 221 -223 335 -284 33 -17 64 -35 70 -40 21 -17 221 -83
271 -90 28 -4 61 -14 75 -21 22 -13 237 -15 1560 -15 1440 0 1537 1 1574 18
21 9 55 17 75 17 21 0 46 7 57 15 10 8 27 15 36 15 21 0 170 60 220 88 140 80
270 188 355 297 63 82 143 207 143 225 0 11 6 23 13 27 29 19 94 235 117 390
20 134 20 172 17 1413 -3 1098 -6 1291 -19 1388 -9 62 -21 118 -26 125 -6 7
-13 29 -17 50 -4 20 -11 40 -16 43 -5 3 -9 16 -9 28 0 13 -7 29 -15 36 -8 7
-15 21 -15 31 0 10 -13 41 -30 67 -16 27 -30 53 -30 57 0 18 -119 165 -204
251 -80 81 -212 184 -236 184 -5 0 -15 6 -22 13 -11 12 -82 42 -218 93 -19 7
-55 16 -80 20 -25 3 -62 13 -84 20 -32 12 -298 14 -1580 13 -1507 -1 -1543 -1
-1626 -21z m2141 -984 c41 -20 89 -63 89 -80 0 -6 7 -17 15 -24 20 -16 20 -89
0 -126 -8 -16 -15 -39 -15 -51 0 -12 -4 -25 -10 -28 -5 -3 -10 -14 -10 -23 0
-9 -7 -30 -15 -46 -8 -15 -15 -36 -15 -45 0 -9 -9 -33 -20 -54 -11 -20 -20
-47 -20 -60 0 -13 -4 -27 -9 -32 -4 -6 -16 -35 -26 -65 -10 -30 -24 -67 -31
-82 -8 -14 -14 -36 -14 -48 0 -12 -6 -34 -14 -48 -8 -15 -35 -92 -60 -172 -26
-80 -53 -161 -61 -180 -14 -36 -40 -113 -55 -165 -16 -54 -65 -190 -74 -204
-5 -7 -12 -27 -16 -45 -7 -28 -13 -46 -40 -121 -4 -11 -15 -37 -24 -58 -9 -21
-16 -43 -16 -50 -1 -7 -9 -30 -20 -52 -11 -22 -19 -48 -20 -58 0 -9 -4 -25
-10 -35 -17 -30 -62 -166 -67 -204 -3 -21 -11 -42 -19 -49 -8 -6 -14 -19 -14
-28 0 -15 -51 -173 -69 -216 -11 -25 -79 -226 -94 -280 -22 -74 -62 -129 -115
-158 -62 -34 -92 -34 -153 0 -69 37 -92 79 -92 170 0 40 5 78 10 85 6 7 14 30
18 51 4 20 11 40 16 43 5 3 9 13 9 22 0 10 9 34 20 55 11 20 20 47 20 60 0 13
4 27 8 33 5 5 19 42 31 82 13 40 27 75 32 78 5 3 9 22 9 43 0 22 6 44 15 51 8
7 15 21 15 31 0 10 6 33 14 51 20 46 106 306 115 348 4 19 13 44 19 55 6 11
25 63 42 115 18 52 38 109 46 127 8 17 14 40 14 50 0 10 4 23 8 28 5 6 19 42
32 80 12 39 26 75 30 80 5 6 11 27 15 48 4 20 11 37 15 37 5 0 11 15 15 33 3
17 10 41 15 52 5 11 19 52 31 90 12 39 26 74 31 80 4 5 8 20 8 33 0 13 6 36
14 50 17 34 146 426 146 445 0 8 7 20 15 27 8 7 15 23 15 35 0 33 54 148 81
175 61 57 129 73 190 44z m-1334 -437 c46 -29 103 -115 103 -155 0 -25 -22
-73 -52 -112 -11 -14 -184 -190 -385 -392 -201 -201 -364 -371 -362 -377 2 -6
169 -176 370 -378 201 -203 373 -379 382 -393 22 -32 23 -140 2 -181 -9 -16
-34 -43 -57 -59 -35 -26 -50 -30 -104 -30 l-63 0 -143 143 c-79 78 -189 189
-244 246 -54 57 -139 142 -189 190 -171 163 -343 348 -364 389 -29 57 -27 107
8 167 18 31 168 191 387 414 198 200 390 396 429 435 102 104 140 128 195 123
26 -2 63 -15 87 -30z m1812 -3 c61 -33 894 -875 933 -942 65 -115 48 -142
-357 -550 -181 -183 -373 -377 -425 -432 -131 -138 -149 -150 -226 -150 -61 0
-64 1 -112 48 -55 53 -68 92 -56 169 6 43 18 58 153 197 80 82 253 256 384
387 130 130 237 240 237 245 0 4 -172 182 -383 394 -423 425 -423 426 -397
512 18 61 45 95 98 123 60 31 93 31 151 -1z"/>
<path d="M3020 9385 c-14 -8 -35 -14 -47 -15 -40 0 -164 -121 -194 -190 -11
-25 -25 -55 -32 -68 -6 -14 -10 -67 -10 -131 2 -107 3 -110 43 -187 61 -117
108 -158 227 -200 113 -40 266 -25 354 34 68 45 159 153 159 188 0 6 7 25 15
40 23 45 20 189 -6 266 -12 35 -31 77 -42 93 -48 69 -152 155 -189 155 -13 0
-32 7 -42 15 -27 20 -201 20 -236 0z"/>
<path d="M10210 9385 c-14 -8 -33 -14 -42 -15 -22 0 -105 -56 -141 -95 -16
-16 -37 -50 -48 -75 -11 -25 -27 -59 -35 -77 -23 -51 -19 -218 8 -290 90 -242
370 -335 601 -199 146 85 223 301 167 466 -12 35 -31 81 -43 103 -24 43 -115
136 -133 137 -6 0 -17 7 -24 15 -7 8 -22 15 -34 15 -11 0 -30 7 -40 15 -27 20
-201 20 -236 0z"/>
<path d="M8900 5658 c0 -145 0 -662 -1 -1151 0 -488 3 -892 6 -897 4 -6 81
-10 190 -10 165 0 185 2 194 18 13 24 14 2242 1 2276 l-10 26 -190 0 -190 0 0
-262z"/>
<path d="M9654 5907 c-2 -7 -3 -91 -2 -187 l3 -175 345 -5 345 -5 5 -145 c3
-80 4 -509 3 -955 -1 -556 2 -814 9 -822 8 -10 55 -13 178 -13 93 0 175 3 184
6 14 6 16 98 16 944 0 586 4 948 10 964 l10 26 339 0 c187 0 345 2 353 5 10 4
13 43 12 179 -1 95 -4 179 -8 185 -11 17 -1795 16 -1802 -2z"/>
<path d="M2405 5349 c-97 -19 -142 -30 -170 -43 -123 -59 -147 -71 -156 -83
-7 -7 -16 -13 -22 -13 -13 0 -91 -63 -142 -115 -44 -45 -135 -187 -135 -211 0
-8 -6 -25 -14 -37 -8 -12 -24 -69 -36 -127 -48 -234 -20 -562 62 -710 10 -19
26 -48 34 -65 39 -77 72 -118 149 -181 97 -80 289 -174 353 -174 16 0 46 -7
65 -15 26 -11 73 -15 167 -15 94 0 141 4 167 15 19 8 48 15 63 15 34 0 125 33
198 72 74 40 131 84 172 135 19 24 42 51 51 61 9 9 29 46 46 82 74 158 74 160
24 160 -15 0 -50 7 -77 15 -27 8 -83 15 -124 15 -41 0 -81 4 -89 9 -22 14 -38
3 -67 -47 -34 -59 -93 -122 -115 -122 -9 0 -19 -7 -23 -15 -3 -8 -16 -15 -28
-15 -13 -1 -34 -7 -48 -15 -39 -22 -222 -20 -288 4 -29 10 -58 23 -65 30 -6 6
-17 11 -24 11 -21 0 -112 89 -140 137 -73 125 -103 308 -78 472 13 82 28 138
46 171 4 8 17 32 28 53 29 51 113 130 169 156 26 12 55 26 64 32 10 5 76 9
148 9 126 0 131 -1 187 -31 65 -35 138 -105 168 -162 22 -41 28 -43 65 -22 16
9 55 14 106 15 55 0 86 5 100 15 10 8 41 15 67 15 59 0 65 13 38 73 -12 25
-21 49 -21 53 0 17 -94 145 -142 192 -49 49 -186 142 -208 142 -6 0 -27 9 -47
20 -21 11 -51 20 -68 20 -17 0 -35 4 -40 9 -13 11 -318 20 -370 10z"/>
<path d="M7430 5350 c-111 -17 -160 -29 -182 -44 -12 -9 -28 -16 -35 -16 -7 0
-46 -21 -87 -46 -84 -50 -152 -121 -185 -192 -12 -26 -29 -59 -37 -74 -8 -14
-14 -41 -14 -60 0 -19 -5 -39 -11 -45 -7 -7 -9 -19 -6 -27 5 -12 21 -16 67
-16 34 0 74 -6 89 -14 31 -17 177 -24 191 -10 5 5 20 30 34 56 59 111 140 166
264 180 85 9 260 -3 271 -20 3 -4 24 -19 46 -32 49 -30 82 -65 100 -107 8 -17
19 -34 24 -37 5 -4 12 -37 16 -74 3 -37 8 -79 10 -93 2 -15 -2 -35 -10 -45
-12 -18 -36 -19 -312 -25 -270 -6 -308 -9 -408 -32 -136 -31 -195 -53 -265
-100 -87 -57 -98 -70 -152 -176 -27 -52 -28 -58 -28 -217 0 -89 4 -165 9 -168
4 -3 16 -26 26 -52 25 -65 68 -127 118 -168 50 -41 184 -106 218 -106 13 0 42
-7 64 -15 57 -20 270 -20 309 0 15 8 38 15 51 15 62 0 221 97 301 182 46 50
59 60 73 51 13 -9 15 -25 12 -102 -2 -60 1 -96 9 -105 9 -12 47 -15 180 -15
102 -1 171 3 175 9 11 18 5 1241 -6 1310 -7 36 -25 92 -42 125 -34 68 -132
171 -194 202 -23 12 -50 26 -60 32 -67 36 -108 51 -136 51 -18 0 -38 5 -44 11
-13 13 -367 21 -443 9z m555 -1001 c11 -33 -15 -182 -42 -239 -35 -73 -147
-189 -221 -226 -56 -28 -60 -29 -217 -29 -142 0 -163 2 -190 20 -117 76 -158
210 -98 324 29 57 93 121 121 121 10 0 24 6 30 13 14 13 134 24 397 35 188 8
212 6 220 -19z"/>
<path d="M4255 5341 c-3 -6 -25 -11 -48 -11 -23 0 -55 -7 -71 -15 -15 -8 -35
-15 -44 -15 -9 0 -47 -16 -86 -36 -127 -65 -212 -133 -276 -219 -131 -177
-178 -355 -167 -640 7 -165 19 -240 57 -335 12 -30 26 -68 32 -85 6 -16 17
-37 24 -46 8 -8 14 -20 14 -25 0 -13 93 -119 132 -152 18 -14 35 -29 38 -32
12 -13 108 -70 150 -88 103 -46 119 -52 147 -52 16 0 35 -6 41 -12 9 -9 66
-14 191 -16 145 -3 185 -1 216 12 20 9 47 16 59 16 70 0 238 85 323 164 54 50
163 195 163 217 0 5 7 21 16 34 26 39 15 47 -71 50 -44 1 -120 8 -168 14 -49
6 -94 8 -102 4 -7 -5 -28 -30 -47 -58 -36 -53 -115 -108 -183 -126 -22 -5 -53
-16 -70 -23 -43 -17 -202 -12 -240 8 -16 9 -38 16 -49 16 -26 0 -146 83 -177
122 -52 66 -96 179 -106 269 -5 53 -4 56 18 62 13 4 302 7 642 7 l618 0 -4
138 c-3 137 -21 269 -38 286 -5 6 -9 22 -9 36 0 14 -7 35 -15 46 -8 10 -15 25
-15 32 0 24 -83 153 -132 207 -79 86 -239 195 -287 195 -9 0 -27 7 -40 16 -32
23 -123 36 -288 41 -92 3 -143 0 -148 -6z m230 -297 c108 -13 247 -109 285
-197 6 -12 14 -29 18 -37 24 -42 30 -60 37 -107 14 -102 53 -93 -426 -93
l-419 0 -12 26 c-13 28 0 79 47 179 49 103 210 224 303 226 20 0 46 4 57 9 11
5 29 7 40 4 11 -2 43 -7 70 -10z"/>
<path d="M6319 5331 c-42 -3 -82 -11 -90 -17 -8 -6 -27 -14 -42 -18 -16 -4
-34 -11 -40 -16 -7 -6 -36 -29 -65 -51 -50 -39 -122 -132 -122 -158 0 -7 -10
-11 -22 -9 -22 3 -23 6 -23 130 l0 127 -35 5 c-27 4 -312 1 -340 -3 -6 -1 -2
-1691 4 -1708 7 -18 336 -19 354 -1 9 9 12 121 12 445 0 342 3 441 14 475 8
24 16 60 19 81 8 54 48 135 93 186 38 44 132 111 156 111 7 0 26 7 42 15 41
21 89 27 246 29 l135 1 0 183 c1 101 -2 185 -5 187 -13 8 -221 12 -291 6z"/>
<path d="M2815 2923 c-103 -13 -183 -62 -221 -134 -22 -44 -22 -159 1 -202 33
-62 106 -99 250 -129 28 -5 55 -13 60 -17 6 -5 26 -11 45 -15 19 -3 49 -21 67
-38 47 -45 46 -94 -2 -143 -39 -38 -63 -43 -190 -36 -80 4 -135 35 -156 89 -9
22 -43 30 -54 12 -3 -5 -20 -10 -36 -10 -39 0 -47 -23 -23 -67 48 -90 162
-143 308 -143 54 0 100 6 123 15 19 8 43 15 53 15 9 0 39 21 67 48 74 71 92
159 52 253 -16 37 -33 56 -70 79 -27 16 -59 30 -72 30 -12 0 -44 7 -72 16 -27
8 -72 19 -99 24 -96 19 -154 80 -140 149 7 35 38 71 61 71 9 0 31 5 49 12 53
19 161 -11 197 -56 l27 -34 48 12 c29 8 48 19 50 28 8 40 -89 148 -132 148
-12 0 -26 4 -31 9 -12 10 -117 20 -160 14z"/>
<path d="M10540 2923 c-19 -2 -46 -8 -60 -14 -103 -44 -129 -72 -155 -165 -15
-56 -15 -64 -1 -116 22 -73 80 -126 163 -147 38 -10 109 -29 193 -52 25 -7 51
-17 58 -23 65 -54 71 -103 18 -158 -27 -28 -45 -37 -87 -42 -115 -15 -213 17
-252 84 -18 31 -35 37 -52 21 -6 -5 -23 -11 -40 -13 -44 -4 -45 -38 -3 -93 33
-43 75 -70 156 -99 54 -20 216 -22 253 -2 14 7 37 16 52 20 33 8 93 60 111 95
14 26 21 92 18 163 -2 28 -12 48 -38 78 -20 22 -42 40 -49 40 -7 0 -18 7 -25
15 -7 8 -29 15 -49 15 -20 0 -42 5 -48 11 -5 5 -45 16 -87 24 -138 23 -195 87
-159 176 14 35 21 41 71 55 49 15 65 15 122 4 53 -11 71 -19 97 -48 29 -32 35
-34 73 -29 52 7 64 18 56 52 -9 35 -84 115 -108 115 -10 0 -31 6 -46 14 -30
15 -128 26 -182 19z"/>
<path d="M3796 2911 c-4 -5 -24 -12 -46 -16 -22 -4 -43 -11 -46 -16 -3 -6 -16
-14 -28 -19 -22 -8 -136 -139 -136 -156 -1 -5 -9 -27 -20 -49 -25 -52 -28
-244 -5 -289 8 -15 15 -34 15 -41 0 -22 92 -130 143 -169 26 -20 57 -36 70
-36 12 -1 33 -7 47 -15 56 -32 217 -15 319 34 47 22 161 136 161 161 0 5 9 27
20 47 17 31 20 57 20 151 0 114 -3 129 -47 219 -34 70 -150 171 -208 180 -19
3 -38 10 -41 14 -7 12 -211 11 -218 0z m274 -159 c27 -23 57 -62 75 -97 27
-54 29 -66 27 -151 -3 -134 -38 -208 -125 -266 -39 -26 -49 -28 -145 -28 -100
0 -104 1 -147 33 -51 37 -94 101 -113 166 -38 127 15 296 113 357 44 28 80 33
180 28 86 -5 92 -7 135 -42z"/>
<path d="M4750 2912 c-24 -2 -48 -8 -52 -15 -9 -15 -9 -785 1 -791 4 -3 118
-6 252 -6 l244 -1 5 44 c3 25 4 50 2 56 -2 7 -59 11 -176 11 -120 0 -176 4
-184 12 -9 9 -12 96 -12 327 0 174 -3 326 -6 338 -7 26 -16 29 -74 25z"/>
<path d="M5548 2909 c-6 -4 -10 -113 -9 -313 1 -305 1 -307 26 -356 26 -52
100 -120 131 -120 10 0 28 -7 38 -15 14 -11 46 -15 110 -15 180 0 285 66 330
207 13 43 16 100 16 336 l0 284 -52 -3 c-29 -1 -58 -3 -65 -3 -9 -1 -13 -75
-15 -289 l-3 -289 -28 -42 c-44 -66 -77 -81 -178 -81 -82 0 -86 1 -118 32 -68
67 -70 77 -72 370 0 144 -3 273 -6 284 -4 18 -11 21 -49 20 -25 0 -50 -4 -56
-7z"/>
<path d="M6547 2913 c-12 -11 -8 -98 5 -111 8 -8 51 -12 129 -12 97 0 118 -3
123 -16 3 -9 6 -164 6 -345 l0 -329 65 0 65 0 2 343 3 342 120 5 120 5 0 60 0
60 -316 3 c-173 1 -318 -1 -322 -5z"/>
<path d="M7587 2912 c-16 -3 -17 -36 -15 -405 l3 -402 65 0 65 0 0 393 c0 217
-2 397 -5 402 -5 8 -87 17 -113 12z"/>
<path d="M8355 2908 c-167 -56 -284 -215 -285 -388 0 -72 20 -163 50 -225 33
-69 158 -175 207 -175 10 0 24 -5 31 -12 7 -7 52 -14 112 -16 80 -4 105 -1
125 12 13 9 36 16 51 16 15 0 34 7 43 15 9 8 39 33 67 54 53 41 114 140 114
185 0 12 6 41 14 66 14 46 11 85 -14 194 -16 70 -71 157 -127 199 -27 20 -54
41 -61 47 -7 6 -28 14 -48 17 -19 3 -37 10 -40 14 -7 12 -202 9 -239 -3z m290
-153 c45 -37 75 -91 101 -180 14 -50 15 -67 5 -110 -6 -27 -15 -66 -20 -86 -4
-20 -13 -43 -19 -50 -55 -68 -76 -89 -87 -89 -7 0 -18 -7 -25 -15 -10 -12 -36
-15 -114 -15 -94 0 -104 2 -143 28 -45 30 -83 69 -83 85 0 6 -7 19 -17 29 -13
15 -16 41 -16 147 l1 129 36 60 c58 96 103 115 256 106 78 -5 88 -8 125 -39z"/>
<path d="M9266 2904 c-9 -23 -7 -802 2 -807 4 -2 31 -2 60 1 l52 4 0 261 c0
144 4 268 9 276 8 12 13 12 35 -3 14 -9 26 -21 26 -26 0 -5 25 -45 55 -90 31
-44 60 -92 65 -105 5 -14 14 -25 19 -25 5 0 17 -17 26 -37 10 -21 37 -63 60
-93 23 -30 57 -79 74 -107 l33 -53 64 0 64 0 0 405 0 405 -54 0 c-30 0 -57 -4
-60 -9 -3 -5 -6 -128 -7 -275 0 -217 -3 -266 -14 -266 -15 0 -32 15 -55 50 -8
12 -23 31 -32 42 -10 12 -18 27 -18 34 0 7 -3 14 -7 16 -9 4 -53 65 -53 73 0
3 -5 11 -10 18 -23 27 -98 135 -132 192 -62 101 -86 122 -145 128 -40 5 -53 3
-57 -9z"/>
<path d="M1326 1400 c-75 -23 -118 -115 -83 -177 14 -25 54 -57 82 -66 105
-31 165 -72 165 -112 0 -12 -12 -35 -26 -50 -24 -26 -29 -27 -97 -22 -58 4
-74 9 -85 26 -16 24 -35 27 -50 9 -7 -10 -4 -21 13 -41 32 -37 64 -47 143 -47
104 0 151 39 152 126 0 44 -4 54 -32 81 -19 18 -57 38 -88 47 -30 9 -73 26
-95 39 -33 19 -40 28 -42 57 -4 52 21 76 87 82 50 5 56 3 83 -23 30 -31 77
-39 77 -15 0 26 -48 72 -88 84 -45 14 -75 14 -116 2z"/>
<path d="M1890 1399 c-128 -39 -194 -192 -145 -338 19 -58 49 -93 104 -122 34
-18 54 -20 124 -18 72 4 87 8 119 32 20 16 50 50 65 75 24 41 27 57 28 133 0
84 -1 88 -37 141 -22 31 -55 64 -78 77 -47 26 -129 35 -180 20z m176 -76 c39
-29 74 -107 74 -165 0 -53 -39 -135 -78 -163 -22 -16 -43 -20 -108 -20 -90 0
-101 5 -142 70 -22 34 -26 52 -26 116 0 84 20 131 72 165 55 38 157 36 208 -3z"/>
<path d="M2404 1401 c-2 -2 -4 -112 -4 -243 l0 -239 28 3 c27 3 27 3 32 95 3
51 10 97 15 102 6 6 44 11 85 13 59 2 75 6 75 18 0 12 -16 16 -75 18 -41 2
-80 8 -87 14 -8 7 -13 36 -13 84 0 90 5 94 110 87 62 -5 78 -3 89 11 9 10 11
20 5 26 -9 9 -252 19 -260 11z"/>
<path d="M2823 1393 c-12 -32 6 -43 70 -43 41 0 69 -5 76 -13 7 -9 12 -86 13
-213 3 -191 4 -199 23 -199 19 0 20 8 23 199 1 122 7 204 13 212 6 8 39 14 77
16 60 3 67 5 70 25 3 22 2 22 -179 25 -138 2 -183 0 -186 -9z"/>
<path d="M3363 1394 c-3 -9 -1 -25 4 -37 15 -33 43 -123 43 -137 0 -7 6 -26
13 -43 22 -51 47 -133 47 -152 0 -9 6 -29 14 -43 8 -15 17 -35 20 -44 7 -23
38 -23 58 0 9 9 20 37 26 62 6 25 15 59 21 75 6 17 21 64 33 105 17 54 28 76
42 78 10 2 22 0 27 -5 9 -9 37 -103 63 -208 7 -27 20 -67 29 -87 14 -32 22
-38 47 -38 22 0 30 5 30 18 0 10 6 26 14 37 7 11 16 38 19 60 3 22 12 60 20
85 9 25 25 79 37 120 12 41 28 90 36 108 16 38 12 52 -17 52 -21 0 -32 -21
-55 -112 -8 -32 -22 -70 -30 -85 -7 -16 -14 -40 -14 -55 0 -15 -4 -29 -9 -32
-4 -3 -11 -23 -15 -45 -7 -45 -23 -61 -33 -34 -3 10 -14 37 -24 60 -11 23 -19
49 -19 57 0 33 -74 238 -88 243 -35 14 -46 -8 -87 -167 -40 -158 -58 -204 -77
-198 -7 3 -15 11 -19 19 -15 27 -59 180 -59 203 0 12 -5 27 -12 34 -7 7 -15
33 -18 59 -4 41 -9 48 -33 54 -21 6 -30 4 -34 -7z"/>
<path d="M5308 1399 c-7 -5 -14 -359 -9 -466 1 -20 264 -18 281 2 22 27 0 35
-100 35 -54 0 -105 3 -114 6 -12 5 -16 21 -16 75 0 85 11 94 111 87 75 -6 102
3 81 24 -8 8 -43 14 -94 14 -55 1 -83 6 -89 15 -11 17 -11 130 -1 146 5 7 44
13 107 15 98 3 100 4 100 27 0 23 -1 23 -123 25 -68 0 -128 -2 -134 -5z"/>
<path d="M6720 1163 l0 -243 139 0 c142 0 151 2 151 41 0 5 -45 9 -101 9 -133
0 -139 4 -139 85 0 79 8 85 114 85 41 0 77 4 81 9 10 17 -28 28 -90 26 -91 -3
-105 10 -105 94 0 82 -2 81 120 81 67 0 91 4 100 15 8 10 9 19 4 25 -5 5 -69
10 -141 12 l-133 3 0 -242z"/>
<path d="M7859 1399 c-5 -3 -8 -105 -7 -240 l3 -234 143 -3 142 -3 0 26 0 25
-97 0 c-145 0 -143 -1 -143 81 0 43 4 71 12 76 7 4 49 8 93 9 102 3 95 2 95
18 0 19 -15 23 -95 20 -101 -3 -106 1 -103 94 l3 77 107 3 c80 2 109 6 119 18
7 9 9 18 3 24 -10 10 -261 18 -275 9z"/>
<path d="M8954 1399 c-83 -19 -154 -107 -169 -211 -16 -111 73 -249 170 -264
187 -28 298 61 297 237 -1 89 -23 141 -82 191 -62 54 -124 67 -216 47z m174
-79 c41 -37 72 -109 72 -164 0 -50 -36 -124 -77 -162 -25 -22 -35 -24 -103
-22 -86 3 -127 25 -154 82 -43 91 -28 194 37 258 39 37 41 38 116 38 71 0 79
-2 109 -30z"/>
<path d="M10443 1399 c-13 -4 -25 -20 -29 -36 -4 -15 -15 -44 -25 -63 -10 -19
-25 -53 -35 -75 -56 -134 -84 -184 -99 -178 -9 3 -37 49 -62 102 -117 248
-116 246 -147 249 -16 2 -32 -1 -35 -6 -3 -6 -4 -110 -1 -232 4 -196 7 -224
22 -234 9 -5 20 -8 23 -4 3 3 6 73 6 155 0 107 4 156 13 168 11 16 14 14 34
-19 12 -21 22 -40 22 -43 0 -3 15 -38 34 -77 18 -39 41 -90 51 -113 16 -35 41
-61 50 -51 3 3 28 57 110 236 21 45 39 82 41 82 1 0 9 -3 18 -6 14 -5 16 -29
16 -164 0 -152 7 -188 30 -164 4 5 10 111 13 237 4 204 3 228 -12 236 -9 5
-26 5 -38 0z"/>
<path d="M10872 1402 l-132 -3 2 -237 3 -237 140 0 c138 0 140 0 143 23 2 13
-2 22 -10 23 -7 0 -53 0 -103 -1 -49 0 -96 3 -103 8 -7 5 -15 34 -17 66 -3 48
-1 60 17 78 18 18 29 20 99 16 75 -4 79 -4 79 16 0 20 -5 22 -79 20 -43 -1
-84 1 -89 5 -29 18 -44 135 -20 159 8 8 48 12 115 12 85 0 105 3 110 16 12 32
-18 39 -155 36z"/>
<path d="M11580 1393 c-1 -10 -1 -82 0 -159 1 -153 -4 -194 -26 -194 -8 0 -14
5 -14 11 0 6 -50 86 -111 177 -104 157 -113 167 -142 167 l-32 0 0 -235 0
-235 23 -3 22 -3 0 163 c0 90 4 169 9 177 10 16 47 7 55 -14 3 -9 31 -55 63
-103 67 -102 80 -122 89 -142 17 -37 57 -80 74 -80 50 0 49 -4 49 241 l1 230
-26 9 c-33 13 -34 13 -34 -7z"/>
<path d="M11848 1399 c-5 -4 -8 -15 -6 -25 3 -16 15 -20 78 -24 l75 -5 5 -210
c5 -202 6 -210 25 -210 19 0 20 8 25 210 l5 210 67 3 c66 3 103 21 82 42 -10
10 -341 18 -356 9z"/>
<path d="M4302 1388 c-7 -7 -12 -23 -12 -36 0 -13 -6 -36 -14 -50 -7 -15 -19
-43 -25 -62 -81 -241 -103 -311 -98 -317 14 -13 57 17 62 44 17 78 27 82 155
75 64 -4 83 -8 86 -21 14 -45 50 -101 66 -101 19 0 25 38 9 56 -5 5 -35 86
-66 179 -31 94 -60 174 -66 180 -5 5 -9 22 -9 37 0 26 -3 28 -38 28 -21 0 -43
-5 -50 -12z m69 -110 c3 -19 12 -50 21 -69 9 -19 19 -51 22 -71 6 -34 4 -38
-17 -43 -13 -4 -46 -5 -73 -3 -45 3 -49 5 -52 30 -2 15 6 48 17 74 12 26 21
57 21 70 0 26 26 57 44 51 6 -2 14 -20 17 -39z"/>
<path d="M4745 1387 c-3 -6 -4 -113 -3 -237 l3 -225 32 -3 32 -3 3 88 3 88 55
0 c44 0 56 -4 65 -20 40 -76 104 -155 126 -155 28 0 24 18 -24 90 -55 82 -60
97 -41 112 52 44 61 61 67 121 6 72 -8 108 -56 137 -27 17 -51 20 -145 20 -81
0 -114 -4 -117 -13z m220 -42 c26 -5 55 -54 55 -92 0 -16 -7 -39 -16 -52 -22
-31 -90 -61 -141 -61 -37 0 -42 3 -48 28 -8 38 -4 153 7 174 6 14 18 16 65 12
32 -3 67 -7 78 -9z"/>
<path d="M6102 1163 l3 -238 125 1 c110 0 129 3 160 22 38 23 80 72 80 94 0 7
7 22 15 32 25 32 19 134 -10 197 -33 72 -42 83 -97 108 -39 18 -66 21 -163 21
l-115 0 2 -237z m254 173 c3 -8 13 -16 22 -18 10 -3 28 -27 42 -53 34 -67 33
-155 -3 -212 -38 -60 -81 -83 -158 -83 -118 0 -109 -14 -109 189 0 98 3 181 7
184 3 4 48 7 100 7 71 0 95 -3 99 -14z"/>
<path d="M7200 1392 c0 -5 7 -23 15 -38 8 -16 15 -37 15 -46 0 -9 5 -20 10
-23 6 -3 10 -14 10 -23 0 -9 7 -30 15 -46 8 -15 15 -33 15 -38 0 -6 7 -26 16
-46 9 -21 22 -52 30 -70 8 -18 14 -39 14 -47 0 -8 10 -33 21 -55 20 -38 24
-41 57 -38 31 3 37 7 43 33 4 17 24 73 44 125 20 52 40 106 45 120 5 14 21 57
35 95 42 109 42 107 11 103 -26 -3 -31 -12 -77 -148 -28 -80 -55 -161 -61
-180 -21 -71 -51 -80 -75 -22 -28 64 -74 196 -80 227 -3 17 -10 36 -16 43 -5
6 -13 27 -16 45 -6 27 -12 32 -39 35 -18 2 -32 -1 -32 -6z"/>
<path d="M8358 1393 c-1 -4 -1 -111 2 -238 l5 -230 124 -5 c111 -4 124 -3 132
13 17 30 0 37 -89 37 -145 0 -131 -21 -134 218 -3 183 -5 207 -20 210 -9 2
-18 -1 -20 -5z"/>
<path d="M9478 1393 c-2 -5 -2 -111 0 -236 2 -196 5 -229 18 -234 25 -9 34 16
34 100 l0 77 71 0 c49 0 83 6 114 20 62 28 80 60 79 136 -1 114 -44 144 -207
144 -58 0 -107 -3 -109 -7z m245 -74 c9 -17 17 -50 17 -74 0 -37 -5 -47 -36
-74 -33 -30 -40 -32 -102 -29 l-67 3 -3 103 -3 102 88 0 c88 0 88 0 106 -31z"/>
</g>
</svg>
