<?xml version="1.0" standalone="no"?>
<!DOCTYPE svg PUBLIC "-//W3C//DTD SVG 20010904//EN"
 "http://www.w3.org/TR/2001/REC-SVG-20010904/DTD/svg10.dtd">
<svg version="1.0" xmlns="http://www.w3.org/2000/svg"
 width="408.000000pt" height="612.000000pt" viewBox="0 0 408.000000 612.000000"
 preserveAspectRatio="xMidYMid meet">

<g transform="translate(0.000000,612.000000) scale(0.100000,-0.100000)"
fill="#000000" stroke="none">
<path d="M1729 4762 c-76 -49 -93 -87 -98 -219 l-3 -113 -185 0 c-112 0 -201
-5 -224 -12 -52 -15 -113 -68 -138 -121 -21 -42 -21 -56 -21 -625 l0 -583 25
-49 c14 -27 40 -60 58 -74 76 -58 37 -56 893 -56 568 0 797 3 825 12 53 15
112 68 138 123 21 44 21 54 21 625 0 569 0 581 -21 625 -12 25 -37 58 -55 75
-63 55 -88 60 -299 60 l-193 0 -4 108 c-4 127 -22 171 -87 217 l-43 30 -271 3
-272 3 -46 -29z m562 -121 c22 -17 24 -29 27 -115 l4 -96 -279 2 -278 3 -3 70
c-4 83 2 109 28 135 19 19 34 20 249 20 210 0 231 -2 252 -19z m-107 -597 c9
-8 16 -21 16 -28 0 -11 -89 -263 -208 -589 -21 -57 -43 -102 -54 -108 -26 -14
-58 6 -58 36 0 21 183 549 226 655 22 51 49 63 78 34z m-370 -80 c9 -8 16 -23
16 -31 0 -9 -53 -69 -117 -135 l-117 -118 112 -113 c81 -83 112 -121 112 -138
0 -28 -17 -49 -39 -49 -9 0 -78 62 -153 137 -104 104 -138 144 -138 163 0 19
34 59 137 162 76 76 145 138 155 138 9 0 24 -7 32 -16z m638 -121 c106 -105
138 -144 138 -163 0 -20 -32 -58 -138 -163 -76 -75 -146 -137 -155 -137 -16 0
-47 36 -47 54 0 5 53 62 117 128 l117 118 -117 118 c-64 66 -117 126 -117 135
0 20 27 47 48 47 9 0 79 -62 154 -137z"/>
<path d="M775 3769 c-52 -30 -63 -102 -20 -144 52 -53 144 -14 145 62 0 61
-75 110 -125 82z"/>
<path d="M3240 3773 c-82 -31 -78 -148 5 -169 31 -8 82 12 95 37 18 32 12 84
-12 107 -25 23 -65 34 -88 25z"/>
<path d="M2540 2430 l0 -280 55 0 55 0 0 280 0 280 -55 0 -55 0 0 -280z"/>
<path d="M2734 2696 c-3 -8 -4 -29 -2 -48 l3 -33 92 -3 93 -3 2 -227 3 -227
49 -3 c32 -2 52 1 57 10 5 7 9 111 9 230 l0 217 93 3 92 3 3 48 3 47 -246 0
c-202 0 -247 -3 -251 -14z"/>
<path d="M1385 2566 c-59 -18 -88 -41 -116 -88 -32 -56 -34 -173 -5 -232 51
-102 222 -137 316 -64 28 22 60 67 60 86 0 21 -84 15 -105 -8 -22 -24 -76 -40
-107 -33 -37 9 -78 53 -78 85 l0 28 150 0 150 0 0 43 c-1 94 -64 169 -160 187
-62 12 -54 12 -105 -4z m115 -91 c26 -13 48 -50 37 -61 -8 -8 -166 -11 -178
-3 -9 5 -8 14 5 34 29 44 85 57 136 30z"/>
<path d="M905 2553 c-77 -40 -109 -98 -109 -198 0 -60 4 -78 28 -119 67 -114
251 -128 328 -25 48 64 43 79 -27 79 -24 0 -37 -7 -49 -25 -33 -50 -132 -41
-161 16 -8 15 -15 53 -15 85 0 50 3 59 34 90 44 44 83 45 129 4 27 -23 44 -30
76 -30 33 0 41 3 41 19 0 29 -43 85 -80 103 -45 23 -153 23 -195 1z"/>
<path d="M1904 2560 c-12 -4 -31 -21 -43 -36 l-21 -27 0 32 0 32 -52 -3 -53
-3 0 -200 0 -200 52 -3 51 -3 4 130 c3 121 5 131 27 155 20 21 34 26 73 26
l48 0 0 55 0 55 -32 -1 c-18 0 -43 -4 -54 -9z"/>
<path d="M2145 2558 c-41 -14 -65 -37 -81 -75 -8 -18 -14 -35 -14 -38 0 -3 24
-5 53 -5 45 0 54 3 62 23 21 47 128 47 146 0 14 -37 -10 -53 -101 -68 -100
-16 -134 -29 -156 -62 -34 -53 -8 -161 44 -177 69 -21 142 -12 194 25 27 19
27 19 30 -3 3 -20 10 -23 51 -26 l47 -3 0 163 c0 185 -10 216 -75 244 -40 16
-155 18 -200 2z m165 -249 c0 -45 -47 -89 -95 -89 -52 0 -75 15 -75 49 0 37
18 51 77 61 89 14 93 13 93 -21z"/>
<path d="M990 1960 c-36 -36 -25 -60 43 -89 35 -15 48 -26 45 -38 -4 -23 -44
-29 -74 -12 -31 16 -42 4 -19 -21 25 -27 88 -27 115 0 36 36 19 73 -45 94 -28
10 -41 21 -43 36 -4 22 -2 23 47 16 53 -7 68 4 32 24 -31 16 -79 12 -101 -10z"/>
<path d="M1239 1951 c-62 -62 -20 -171 66 -171 27 0 44 8 66 29 62 62 20 171
-66 171 -27 0 -44 -8 -66 -29z m111 -21 c24 -24 26 -67 4 -98 -19 -28 -67 -29
-94 -2 -41 41 -12 120 45 120 14 0 34 -9 45 -20z"/>
<path d="M1507 1973 c-4 -3 -7 -48 -7 -100 l0 -93 60 0 c47 0 60 3 60 15 0 11
-12 15 -45 15 l-45 0 0 85 c0 78 -5 96 -23 78z"/>
<path d="M1716 1973 c-3 -3 -6 -36 -6 -73 0 -86 22 -120 79 -120 65 0 76 16
76 111 0 57 -4 83 -12 86 -10 4 -13 -15 -13 -69 0 -81 -9 -98 -52 -98 -36 0
-48 24 -48 99 0 56 -9 79 -24 64z"/>
<path d="M1982 1972 c-23 -7 -12 -21 21 -24 l32 -3 3 -83 c2 -60 6 -82 15 -79
8 2 13 33 15 85 l3 82 29 0 c30 0 41 14 18 23 -16 5 -118 5 -136 -1z"/>
<path d="M2236 1973 c-3 -3 -6 -48 -6 -100 0 -76 3 -93 15 -93 12 0 15 17 15
94 0 87 -7 116 -24 99z"/>
<path d="M2413 1968 c-27 -13 -53 -75 -46 -111 15 -78 107 -104 165 -47 28 28
30 36 25 78 -8 76 -75 113 -144 80z m97 -40 c41 -44 12 -118 -47 -118 -56 0
-83 67 -47 118 20 29 67 29 94 0z"/>
<path d="M2667 1973 c-4 -3 -7 -49 -7 -100 0 -71 3 -94 13 -91 7 3 14 31 17
73 l5 68 48 -71 c66 -101 77 -97 77 29 0 76 -3 100 -12 97 -8 -3 -14 -28 -15
-68 -1 -34 -4 -64 -5 -66 -2 -1 -25 28 -51 67 -47 67 -57 76 -70 62z"/>
<path d="M2950 1960 c-36 -36 -19 -72 45 -92 50 -16 57 -51 11 -56 -16 -2 -33
1 -39 7 -16 16 -37 13 -37 -4 0 -19 31 -35 70 -35 50 0 70 16 70 56 0 31 -4
37 -37 50 -56 21 -68 30 -68 45 0 18 52 24 70 9 10 -8 15 -8 21 1 10 17 -23
39 -58 39 -15 0 -37 -9 -48 -20z"/>
<path d="M707 1573 c-17 -17 -5 -45 23 -54 17 -6 30 -18 30 -26 0 -12 -8 -14
-37 -9 -35 6 -37 5 -19 -9 25 -19 50 -19 66 0 16 20 6 43 -25 55 -14 5 -25 17
-25 26 0 13 6 15 30 10 19 -3 29 -2 25 4 -7 11 -58 14 -68 3z"/>
<path d="M836 1564 c-24 -23 -20 -70 6 -88 30 -21 54 -20 78 4 40 40 16 100
-40 100 -16 0 -36 -7 -44 -16z m72 -6 c17 -17 15 -53 -3 -68 -8 -7 -25 -10
-40 -6 -43 11 -30 86 15 86 9 0 21 -5 28 -12z"/>
<path d="M991 1518 c1 -45 3 -54 8 -33 4 20 14 31 31 36 l25 6 -25 4 c-35 6
-32 32 5 40 29 6 29 7 -7 8 l-38 1 1 -62z"/>
<path d="M1108 1573 c20 -4 22 -10 22 -59 0 -30 5 -54 10 -54 6 0 10 24 10 54
0 49 2 55 23 59 12 2 -3 4 -33 4 -30 0 -45 -2 -32 -4z"/>
<path d="M1239 1524 c9 -32 22 -59 28 -61 7 -3 17 14 23 36 13 51 24 52 36 4
13 -51 28 -51 43 -1 7 24 15 51 17 61 3 9 1 17 -5 17 -5 0 -13 -16 -17 -35 -9
-50 -21 -52 -34 -5 -13 49 -31 48 -44 -3 -12 -47 -22 -47 -33 0 -4 20 -14 38
-20 40 -7 3 -6 -15 6 -53z"/>
<path d="M1432 1520 c-12 -33 -17 -60 -12 -60 4 0 10 7 14 15 7 20 52 19 60
-1 4 -9 9 -14 12 -11 11 10 -26 117 -40 117 -8 0 -23 -25 -34 -60z m48 -2 c0
-5 -7 -8 -15 -8 -17 0 -18 2 -9 25 5 13 8 14 15 3 5 -7 9 -16 9 -20z"/>
<path d="M1560 1521 c0 -34 4 -61 10 -61 6 0 10 11 10 25 0 14 4 25 10 25 5 0
17 -11 26 -25 9 -14 21 -25 26 -25 6 0 3 11 -5 24 -11 16 -12 27 -6 33 6 6 9
21 7 34 -2 20 -10 25 -40 27 l-38 3 0 -60z m67 33 c6 -16 -12 -34 -34 -34 -7
0 -13 11 -13 25 0 18 5 25 20 25 11 0 23 -7 27 -16z"/>
<path d="M1700 1520 l0 -60 36 0 c21 0 33 4 29 10 -3 6 -17 10 -31 10 -34 0
-29 31 6 41 l25 7 -27 1 c-21 1 -28 6 -28 20 0 15 8 21 33 24 31 4 31 4 -5 5
l-38 2 0 -60z"/>
<path d="M1880 1520 c0 -59 0 -60 28 -60 59 0 89 49 62 101 -8 14 -21 19 -50
19 l-40 0 0 -60z m68 38 c27 -27 7 -78 -30 -78 -15 0 -18 8 -18 45 0 37 3 45
18 45 10 0 23 -5 30 -12z"/>
<path d="M2030 1520 l0 -60 35 0 c19 0 35 5 35 10 0 6 -11 10 -25 10 -33 0
-35 37 -2 43 l22 4 -22 2 c-35 2 -31 39 5 44 22 3 20 4 -10 6 l-38 1 0 -60z"/>
<path d="M2164 1524 c13 -32 28 -60 33 -61 6 -2 20 22 31 53 25 64 25 64 12
64 -5 0 -10 -4 -10 -9 0 -5 -7 -26 -16 -47 l-16 -39 -18 45 c-9 24 -22 46 -28
48 -6 2 -1 -23 12 -54z"/>
<path d="M2300 1520 l0 -60 36 0 c21 0 33 4 29 10 -3 6 -17 10 -31 10 -34 0
-29 32 6 41 l25 6 -25 4 c-35 6 -32 32 5 40 29 6 29 7 -7 8 l-38 1 0 -60z"/>
<path d="M2420 1520 l0 -60 36 0 c21 0 33 4 29 10 -3 6 -15 10 -26 10 -16 0
-19 7 -19 50 0 28 -4 50 -10 50 -6 0 -10 -27 -10 -60z"/>
<path d="M2542 1568 c-24 -31 -23 -57 2 -83 29 -29 43 -31 74 -9 25 17 31 71
10 92 -16 16 -73 15 -86 0z m72 -14 c19 -18 20 -28 6 -55 -20 -37 -80 -15 -80
30 0 14 29 41 45 41 7 0 21 -7 29 -16z"/>
<path d="M2690 1520 c0 -33 4 -60 10 -60 6 0 10 11 10 25 0 20 5 25 25 25 29
0 47 27 34 52 -6 12 -21 18 -44 18 l-35 0 0 -60z m59 41 c19 -12 6 -41 -19
-41 -15 0 -20 7 -20 25 0 26 14 31 39 16z"/>
<path d="M2820 1520 c0 -33 4 -60 10 -60 6 0 10 19 11 43 l0 42 16 -37 c8 -21
19 -38 23 -38 4 0 16 17 26 38 l19 37 3 -42 c5 -65 22 -51 22 17 0 73 -16 79
-47 18 l-21 -43 -18 43 c-25 63 -44 55 -44 -18z"/>
<path d="M3000 1520 l0 -60 35 0 c19 0 35 5 35 10 0 6 -11 10 -25 10 -37 0
-35 37 3 43 l27 4 -27 2 c-21 1 -28 6 -28 20 0 14 8 21 28 24 22 3 20 4 -10 6
l-38 1 0 -60z"/>
<path d="M3120 1520 c0 -33 4 -60 10 -60 6 0 10 21 10 48 l0 47 31 -47 c17
-27 35 -48 40 -48 5 0 9 27 9 60 0 33 -4 60 -9 60 -4 0 -7 -16 -6 -36 2 -48
-7 -49 -35 -3 -36 57 -50 51 -50 -21z"/>
<path d="M3278 1573 c20 -4 22 -10 22 -59 0 -30 5 -54 10 -54 6 0 10 24 10 54
0 49 2 55 23 59 12 2 -3 4 -33 4 -30 0 -45 -2 -32 -4z"/>
</g>
</svg>
